<svg width="43" height="43" viewBox="0 0 43 43" fill="none" xmlns="http://www.w3.org/2000/svg">
<path d="M0.753052 0.189453V42.5138H42.1808V0.189453H0.753052ZM41.3685 41.6839H1.56536V1.01934H41.3685V41.6839Z" fill="white"/>
<path d="M16.8043 34.6882H22.7422V23.0698H29.1757V17.0033H22.7422V14.6962C22.7422 14.5356 22.8047 14.3815 22.9159 14.2678C23.0271 14.1542 23.1779 14.0904 23.3352 14.0904H29.1757V8.03223H20.7033C20.1881 8.03223 19.6779 8.1359 19.2019 8.33734C18.7259 8.53878 18.2934 8.83404 17.929 9.20625C17.5647 9.57846 17.2757 10.0203 17.0785 10.5067C16.8814 10.993 16.7799 11.5142 16.7799 12.0406V17.0199H13.7825V23.0864H16.8043V34.6882ZM14.6191 22.2399V17.8332H17.6166V12.024C17.6187 11.1817 17.9472 10.3745 18.5302 9.7789C19.1132 9.18329 19.9032 8.84772 20.7277 8.84553H28.3634V13.2439H23.3027C22.93 13.2439 22.5726 13.3952 22.309 13.6644C22.0455 13.9337 21.8974 14.2989 21.8974 14.6796V17.8166H28.3309V22.2233H21.8974V33.8417H17.6166V22.2233L14.6191 22.2399Z" fill="white"/>
</svg>
