<svg width="42" height="43" viewBox="0 0 42 43" fill="none" xmlns="http://www.w3.org/2000/svg">
<path d="M0 0.189453V42.5138H41.4277V0.189453H0ZM40.6154 41.6839H0.812308V1.01934H40.6154V41.6839Z" fill="white"/>
<path d="M20.7138 35.0037C22.8364 34.9972 24.9094 34.3481 26.6711 33.1386C28.4328 31.9291 29.8041 30.2134 30.6119 28.2081C31.4197 26.2028 31.6278 23.998 31.2097 21.872C30.7917 19.746 29.7664 17.7942 28.2633 16.2632C26.7602 14.7322 24.8467 13.6906 22.7644 13.2699C20.6822 12.8493 18.5247 13.0685 16.5643 13.8998C14.604 14.7312 12.9288 16.1374 11.7502 17.9408C10.5716 19.7443 9.94264 21.8641 9.94263 24.0326C9.94369 25.4758 10.2233 26.9047 10.7653 28.2374C11.3074 29.5702 12.1014 30.7807 13.1018 31.7997C14.1022 32.8186 15.2894 33.6261 16.5956 34.1759C17.9017 34.7257 19.3012 35.007 20.7138 35.0037ZM20.7138 13.8914C22.6757 13.8979 24.5917 14.4983 26.2198 15.6166C27.8479 16.7349 29.1151 18.321 29.8614 20.1747C30.6078 22.0283 30.7997 24.0663 30.413 26.0313C30.0264 27.9963 29.0784 29.8002 27.6889 31.2152C26.2994 32.6301 24.5306 33.5927 22.606 33.9813C20.6813 34.37 18.6871 34.1672 16.8752 33.3987C15.0633 32.6301 13.5149 31.3303 12.4256 29.6633C11.3363 27.9963 10.7549 26.0369 10.7549 24.0326C10.756 22.6983 11.0146 21.3774 11.5158 20.1453C12.0171 18.9133 12.7512 17.7943 13.6762 16.8523C14.6012 15.9104 15.6988 15.1641 16.9064 14.656C18.114 14.1479 19.4079 13.8881 20.7138 13.8914Z" fill="white"/>
<path d="M33.0122 12.5467C33.4813 12.5467 33.9399 12.4046 34.33 12.1383C34.72 11.8721 35.0241 11.4936 35.2036 11.0508C35.3831 10.608 35.4301 10.1208 35.3386 9.6507C35.247 9.18064 35.0211 8.74885 34.6894 8.40995C34.3577 8.07105 33.9351 7.84026 33.4749 7.74676C33.0148 7.65326 32.5379 7.70125 32.1045 7.88466C31.6711 8.06807 31.3006 8.37866 31.04 8.77717C30.7794 9.17567 30.6403 9.64419 30.6403 10.1235C30.6403 10.7662 30.8902 11.3825 31.335 11.837C31.7798 12.2914 32.3831 12.5467 33.0122 12.5467ZM33.0122 8.53008C33.3207 8.53008 33.6222 8.62353 33.8787 8.79862C34.1352 8.9737 34.3351 9.22255 34.4531 9.5137C34.5712 9.80486 34.602 10.1252 34.5419 10.4343C34.4817 10.7434 34.3331 11.0273 34.115 11.2502C33.8969 11.473 33.619 11.6248 33.3165 11.6862C33.0139 11.7477 32.7003 11.7162 32.4153 11.5956C32.1304 11.475 31.8868 11.2707 31.7154 11.0087C31.544 10.7467 31.4526 10.4386 31.4526 10.1235C31.4526 9.70088 31.6169 9.29559 31.9094 8.99677C32.2019 8.69795 32.5986 8.53008 33.0122 8.53008Z" fill="white"/>
</svg>
