<svg width="42" height="43" viewBox="0 0 42 43" fill="none" xmlns="http://www.w3.org/2000/svg">
<path d="M0.170532 0.189453V42.5138H41.5983V0.189453H0.170532ZM40.786 41.6839H0.982841V1.01934H40.786V41.6839Z" fill="white"/>
<path d="M9.02473 37.028L17.9033 34.4637C21.1736 35.6436 24.7504 35.5817 27.9798 34.2895C31.2092 32.9972 33.8756 30.5609 35.4917 27.4257C37.1077 24.2905 37.5655 20.6658 36.7813 17.2142C35.9972 13.7626 34.0234 10.7146 31.2209 8.62715C28.4183 6.53974 24.974 5.55238 21.5176 5.84553C18.0612 6.13868 14.8235 7.69274 12.3962 10.2237C9.96887 12.7547 8.51413 16.0935 8.29779 19.63C8.08146 23.1664 9.11798 26.6643 11.2179 29.4844L9.02473 37.028ZM9.02473 20.5714C9.02473 17.827 9.82127 15.1443 11.3137 12.8624C12.806 10.5806 14.9272 8.80209 17.409 7.75187C19.8907 6.70165 22.6216 6.42686 25.2562 6.96226C27.8908 7.49766 30.3108 8.8192 32.2103 10.7598C34.1097 12.7003 35.4033 15.1727 35.9273 17.8644C36.4514 20.556 36.1824 23.3459 35.1545 25.8814C34.1265 28.4168 32.3857 30.5839 30.1522 32.1086C27.9186 33.6333 25.2927 34.4471 22.6065 34.4471C21.0465 34.4437 19.499 34.1628 18.0332 33.6172L17.9114 33.5757L10.2026 35.7998L12.0953 29.3267L11.9653 29.1607C10.0658 26.7195 9.03726 23.6899 9.04909 20.5714H9.02473Z" fill="white"/>
<path d="M22.2734 26.7793C23.1783 27.7037 24.4055 28.223 25.6851 28.223C26.9647 28.223 28.1919 27.7037 29.0968 26.7793L29.6004 26.2648C29.9978 25.8586 30.221 25.3079 30.221 24.7337C30.221 24.1594 29.9978 23.6087 29.6004 23.2025L27.9758 21.5427C27.5786 21.1393 27.0413 20.9129 26.4812 20.9129C25.9211 20.9129 25.3838 21.1393 24.9865 21.5427C24.7274 21.8217 24.3783 21.9956 24.0036 22.0322C23.6288 22.0688 23.2538 21.9657 22.9476 21.7419L21.4855 20.2564C21.2675 19.9417 21.1673 19.5576 21.2031 19.1738C21.2389 18.79 21.4082 18.4321 21.6804 18.1651C22.0753 17.7593 22.2969 17.2103 22.2969 16.6381C22.2969 16.0659 22.0753 15.5169 21.6804 15.1111L20.0558 13.4513C19.6583 13.0454 19.1192 12.8174 18.5571 12.8174C17.995 12.8174 17.456 13.0454 17.0584 13.4513L16.3842 14.1318C15.5251 15.0137 15.0427 16.2072 15.0427 17.4514C15.0427 18.6956 15.5251 19.8891 16.3842 20.771L22.2734 26.7793ZM16.9609 14.7211L17.6351 14.0323C17.8784 13.7831 18.2086 13.6428 18.553 13.6422C18.9 13.6424 19.2328 13.7826 19.4791 14.0323L21.1037 15.692C21.3478 15.9438 21.4847 16.2838 21.4847 16.6381C21.4847 16.9924 21.3478 17.3324 21.1037 17.5842C20.6794 18.0036 20.4241 18.5701 20.3881 19.1721C20.352 19.7741 20.5377 20.3682 20.9088 20.8373L22.3709 22.3311C22.8301 22.7102 23.4116 22.9 24.0009 22.8631C24.5902 22.8262 25.1446 22.5654 25.5551 22.132C25.8026 21.8846 26.135 21.7461 26.4812 21.7461C26.8274 21.7461 27.1598 21.8846 27.4072 22.132L29.0318 23.7917C29.2734 24.0431 29.4088 24.3814 29.4088 24.7337C29.4088 25.086 29.2734 25.4242 29.0318 25.6756L28.5201 26.1984C27.7609 26.9587 26.7401 27.3846 25.677 27.3846C24.6139 27.3846 23.5931 26.9587 22.8339 26.1984L16.9609 20.1983C16.2526 19.4706 15.855 18.486 15.855 17.4597C15.855 16.4334 16.2526 15.4488 16.9609 14.7211Z" fill="white"/>
</svg>
