<svg width="1920" height="884" viewBox="0 0 1920 884" fill="none" xmlns="http://www.w3.org/2000/svg">
<path d="M0 0H1920V860H0V0Z" fill="black"/>
<path d="M17.1785 399.533L16.5 399.274L16.5 400L16.5 883L16.5 883.5H17H102H102.5V883V432.491V432.147L102.179 432.024L17.1785 399.533Z" stroke="white"/>
<path d="M973.5 175.5V112.5L1070.5 151.5V870.5H1092V92.5L1183 80.5V870.5H1233V180L1335 197.5V355.5" stroke="white"/>
<path d="M524.896 171.511L525.5 171.383L525.5 172L525.5 658L525.5 658.5H525H371H370.5V658V204.693V204.288L370.896 204.204L524.896 171.511Z" stroke="white"/>
<path d="M846 256V175.584H885.591V105.434H907.818L914.764 34L920.32 105.434H946.02V175.584H987V270.5" stroke="white"/>
<path d="M272 299.5L139 364.201V883" stroke="white"/>
<path d="M750 167.872L678.822 189.648V870H648.747V163.84L588.596 144V870H609.148V199.648L550 177.872V870" stroke="white"/>
<path d="M857.5 175.5V125.5L749.5 77V243.5" stroke="white"/>
<path d="M-1 556L35 543V860.5" stroke="white"/>
<path d="M195 287V189L280 213.5V294.5H247.5V194L340 168V291.5" stroke="white"/>
<path d="M1398.5 279.5V159L1509 200V287H1473V236L1592 215V272H1558.5V139L1675.5 167.5V279.5" stroke="white"/>
<path d="M1734.5 325.5L1821.5 367.5V873H1801V608.5L1879 560.5V873H1902.5V466L1946 478" stroke="white"/>
<path d="M1675.5 278.5V860" stroke="white"/>
<path d="M1736 325.5L1675 295.5" stroke="white"/>
</svg>
