<svg width="320" height="985" viewBox="0 0 320 985" fill="none" xmlns="http://www.w3.org/2000/svg">
<path d="M0 0H320V960H0V0Z" fill="black"/>
<path d="M95.85 149.287V607.066H30.15V120.131L95.85 149.287Z" stroke="white" stroke-width="0.3"/>
<path d="M312.089 267.322L312.15 267.367V267.443V984V984.15H312H230H229.85V984V207V206.703L230.089 206.879L312.089 267.322Z" stroke="white" stroke-width="0.3"/>
<path d="M30.4399 359.253L8.99994 375.32V627.455" stroke="white" stroke-width="0.3"/>
<path d="M-9.5 260.5L24 245V552" stroke="white" stroke-width="0.3"/>
<path d="M24 830.5L-9.5 815V970" stroke="white" stroke-width="0.3"/>
<path d="M335.056 167.572L285.212 183.368V249.5H264.15V118.025L222.028 103.633V154.928H236.42V136L195 120.204V163.704" stroke="white" stroke-width="0.3"/>
<path d="M120 183V142.225H132.217V117.89H141.567L145.113 87L147.951 117.89H159.074V142.225H172V183" stroke="white" stroke-width="0.3"/>
<path d="M-24 607L9.5 591.5V823" stroke="white" stroke-width="0.3"/>
</svg>
