<svg width="392" height="54" viewBox="0 0 392 54" fill="none" xmlns="http://www.w3.org/2000/svg">
<path d="M0.588013 0.831604H391.062L371.038 53.9488H0.588013V0.831604Z" fill="url(#paint0_linear_649_131)"/>
<path d="M53.8116 35.3181L48.2236 27.7281L50.0056 26.6281L56.3196 35.3181H53.8116ZM43.4496 35.3181V19.9181H45.6056V35.3181H43.4496ZM44.9456 28.5421V26.6061H49.9396V28.5421H44.9456ZM50.2036 27.8601L48.1796 27.5521L53.7016 19.9181H56.0556L50.2036 27.8601ZM63.0662 35.4501C61.8929 35.4501 60.8516 35.1934 59.9422 34.6801C59.0329 34.1668 58.3142 33.4628 57.7862 32.5681C57.2582 31.6588 56.9942 30.6321 56.9942 29.4881C56.9942 28.3294 57.2582 27.3028 57.7862 26.4081C58.3142 25.5134 59.0329 24.8168 59.9422 24.3181C60.8516 23.8048 61.8929 23.5481 63.0662 23.5481C64.2249 23.5481 65.2589 23.8048 66.1682 24.3181C67.0922 24.8168 67.8109 25.5134 68.3242 26.4081C68.8522 27.2881 69.1162 28.3148 69.1162 29.4881C69.1162 30.6468 68.8522 31.6734 68.3242 32.5681C67.8109 33.4628 67.0922 34.1668 66.1682 34.6801C65.2589 35.1934 64.2249 35.4501 63.0662 35.4501ZM63.0662 33.6021C63.8142 33.6021 64.4816 33.4334 65.0682 33.0961C65.6696 32.7588 66.1389 32.2821 66.4762 31.6661C66.8136 31.0354 66.9822 30.3094 66.9822 29.4881C66.9822 28.6521 66.8136 27.9334 66.4762 27.3321C66.1389 26.7161 65.6696 26.2394 65.0682 25.9021C64.4816 25.5648 63.8142 25.3961 63.0662 25.3961C62.3182 25.3961 61.6509 25.5648 61.0642 25.9021C60.4776 26.2394 60.0082 26.7161 59.6562 27.3321C59.3042 27.9334 59.1282 28.6521 59.1282 29.4881C59.1282 30.3094 59.3042 31.0354 59.6562 31.6661C60.0082 32.2821 60.4776 32.7588 61.0642 33.0961C61.6509 33.4334 62.3182 33.6021 63.0662 33.6021ZM72.166 35.3181V23.6581H74.278V28.6081H80.922V23.6581H83.034V35.3181H80.922V30.4341H74.278V35.3181H72.166ZM92.2226 35.4501C91.0346 35.4501 89.9713 35.1934 89.0326 34.6801C88.1086 34.1668 87.3826 33.4628 86.8546 32.5681C86.3266 31.6734 86.0626 30.6468 86.0626 29.4881C86.0626 28.3294 86.3266 27.3028 86.8546 26.4081C87.3826 25.5134 88.1086 24.8168 89.0326 24.3181C89.9713 23.8048 91.0346 23.5481 92.2226 23.5481C93.2786 23.5481 94.2173 23.7608 95.0386 24.1861C95.8746 24.5968 96.5199 25.2128 96.9746 26.0341L95.3686 27.0681C94.9873 26.4961 94.5179 26.0781 93.9606 25.8141C93.4179 25.5354 92.8313 25.3961 92.2006 25.3961C91.4379 25.3961 90.7559 25.5648 90.1546 25.9021C89.5533 26.2394 89.0766 26.7161 88.7246 27.3321C88.3726 27.9334 88.1966 28.6521 88.1966 29.4881C88.1966 30.3241 88.3726 31.0501 88.7246 31.6661C89.0766 32.2821 89.5533 32.7588 90.1546 33.0961C90.7559 33.4334 91.4379 33.6021 92.2006 33.6021C92.8313 33.6021 93.4179 33.4701 93.9606 33.2061C94.5179 32.9274 94.9873 32.5021 95.3686 31.9301L96.9746 32.9421C96.5199 33.7488 95.8746 34.3721 95.0386 34.8121C94.2173 35.2374 93.2786 35.4501 92.2226 35.4501ZM100.153 39.7181C99.5952 39.7181 99.0526 39.6228 98.5246 39.4321C97.9966 39.2561 97.5419 38.9921 97.1606 38.6401L98.0626 37.0561C98.3559 37.3348 98.6786 37.5474 99.0306 37.6941C99.3826 37.8408 99.7566 37.9141 100.153 37.9141C100.666 37.9141 101.091 37.7821 101.429 37.5181C101.766 37.2541 102.081 36.7848 102.375 36.1101L103.101 34.5041L103.321 34.2401L107.897 23.6581H109.965L104.311 36.4841C103.973 37.3054 103.592 37.9508 103.167 38.4201C102.756 38.8894 102.301 39.2194 101.803 39.4101C101.304 39.6154 100.754 39.7181 100.153 39.7181ZM102.925 35.6921L97.6006 23.6581H99.8006L104.333 34.0421L102.925 35.6921ZM109.589 35.2961L109.721 33.5141C109.824 33.5288 109.919 33.5434 110.007 33.5581C110.095 33.5728 110.176 33.5801 110.249 33.5801C110.719 33.5801 111.085 33.4188 111.349 33.0961C111.628 32.7734 111.833 32.3481 111.965 31.8201C112.097 31.2774 112.193 30.6688 112.251 29.9941C112.31 29.3194 112.354 28.6448 112.383 27.9701L112.581 23.6581H121.535V35.3181H119.423V24.8901L119.929 25.5061H113.945L114.429 24.8681L114.275 28.1021C114.231 29.1288 114.151 30.0894 114.033 30.9841C113.916 31.8788 113.733 32.6634 113.483 33.3381C113.249 34.0128 112.919 34.5408 112.493 34.9221C112.083 35.3034 111.547 35.4941 110.887 35.4941C110.697 35.4941 110.491 35.4721 110.271 35.4281C110.066 35.3988 109.839 35.3548 109.589 35.2961ZM131.009 27.6181C132.49 27.6328 133.62 27.9701 134.397 28.6301C135.174 29.2901 135.563 30.2214 135.563 31.4241C135.563 32.6854 135.138 33.6608 134.287 34.3501C133.436 35.0248 132.234 35.3548 130.679 35.3401L125.619 35.3181V23.6581H127.731V27.5961L131.009 27.6181ZM130.503 33.7341C131.456 33.7488 132.175 33.5581 132.659 33.1621C133.158 32.7661 133.407 32.1794 133.407 31.4021C133.407 30.6394 133.165 30.0821 132.681 29.7301C132.197 29.3781 131.471 29.1948 130.503 29.1801L127.731 29.1361V33.7121L130.503 33.7341ZM139.445 35.3181V24.9561L139.973 25.5061H135.177V23.6581H145.825V25.5061H141.051L141.557 24.9561V35.3181H139.445ZM155.134 35.3181V32.8541L155.024 32.3921V28.1901C155.024 27.2954 154.76 26.6061 154.232 26.1221C153.719 25.6234 152.942 25.3741 151.9 25.3741C151.211 25.3741 150.536 25.4914 149.876 25.7261C149.216 25.9461 148.659 26.2468 148.204 26.6281L147.324 25.0441C147.926 24.5601 148.644 24.1934 149.48 23.9441C150.331 23.6801 151.218 23.5481 152.142 23.5481C153.741 23.5481 154.973 23.9368 155.838 24.7141C156.704 25.4914 157.136 26.6794 157.136 28.2781V35.3181H155.134ZM151.306 35.4501C150.441 35.4501 149.678 35.3034 149.018 35.0101C148.373 34.7168 147.874 34.3134 147.522 33.8001C147.17 33.2721 146.994 32.6781 146.994 32.0181C146.994 31.3874 147.141 30.8154 147.434 30.3021C147.742 29.7888 148.234 29.3781 148.908 29.0701C149.598 28.7621 150.522 28.6081 151.68 28.6081H155.376V30.1261H151.768C150.712 30.1261 150.001 30.3021 149.634 30.6541C149.268 31.0061 149.084 31.4314 149.084 31.9301C149.084 32.5021 149.312 32.9641 149.766 33.3161C150.221 33.6534 150.852 33.8221 151.658 33.8221C152.45 33.8221 153.14 33.6461 153.726 33.2941C154.328 32.9421 154.76 32.4288 155.024 31.7541L155.442 33.2061C155.164 33.8954 154.672 34.4454 153.968 34.8561C153.264 35.2521 152.377 35.4501 151.306 35.4501ZM160.939 35.3181V23.6581H163.051V33.4701H169.431V23.6581H171.543V35.3181H160.939ZM171.389 38.0241V35.2081L171.917 35.3181H169.431V33.4701H173.391V38.0241H171.389ZM176.129 35.3181V23.6581H178.241V32.1501L185.391 23.6581H187.305V35.3181H185.193V26.8261L178.065 35.3181H176.129ZM198.862 35.3181V31.2261L199.192 31.6221H195.474C193.92 31.6221 192.702 31.2921 191.822 30.6321C190.957 29.9721 190.524 29.0114 190.524 27.7501C190.524 26.4008 190.986 25.3814 191.91 24.6921C192.849 24.0028 194.096 23.6581 195.65 23.6581H200.754V35.3181H198.862ZM190.414 35.3181L193.582 30.8521H195.76L192.68 35.3181H190.414ZM198.862 30.5661V24.9121L199.192 25.5061H195.716C194.748 25.5061 194 25.6894 193.472 26.0561C192.944 26.4081 192.68 26.9948 192.68 27.8161C192.68 29.3414 193.663 30.1041 195.628 30.1041H199.192L198.862 30.5661ZM213.445 39.5861C212.609 38.2514 211.964 36.7114 211.509 34.9661C211.055 33.2061 210.827 31.3141 210.827 29.2901C210.827 27.2661 211.055 25.3741 211.509 23.6141C211.964 21.8394 212.609 20.2994 213.445 18.9941H215.447C214.567 20.5488 213.922 22.1768 213.511 23.8781C213.101 25.5648 212.895 27.3688 212.895 29.2901C212.895 31.2114 213.101 33.0228 213.511 34.7241C213.922 36.4108 214.567 38.0314 215.447 39.5861H213.445ZM223.585 35.4941C222.617 35.4941 221.759 35.3401 221.011 35.0321C220.278 34.7241 219.647 34.2694 219.119 33.6681C218.591 33.0521 218.188 32.2821 217.909 31.3581C217.645 30.4194 217.513 29.3194 217.513 28.0581C217.513 27.0608 217.601 26.1661 217.777 25.3741C217.953 24.5821 218.203 23.8781 218.525 23.2621C218.863 22.6461 219.273 22.1108 219.757 21.6561C220.256 21.2014 220.813 20.8274 221.429 20.5341C222.06 20.2261 222.749 19.9914 223.497 19.8301L228.821 18.6421L229.129 20.6001L224.223 21.6561C223.93 21.7148 223.578 21.8028 223.167 21.9201C222.757 22.0374 222.339 22.2208 221.913 22.4701C221.488 22.7048 221.092 23.0348 220.725 23.4601C220.359 23.8854 220.065 24.4428 219.845 25.1321C219.625 25.8068 219.515 26.6428 219.515 27.6401C219.515 27.9188 219.523 28.1314 219.537 28.2781C219.552 28.4248 219.567 28.5714 219.581 28.7181C219.611 28.8648 219.633 29.0848 219.647 29.3781L218.767 28.4761C219.002 27.6694 219.376 26.9654 219.889 26.3641C220.403 25.7628 221.019 25.3008 221.737 24.9781C222.471 24.6408 223.27 24.4721 224.135 24.4721C225.221 24.4721 226.181 24.7068 227.017 25.1761C227.868 25.6454 228.535 26.2908 229.019 27.1121C229.503 27.9334 229.745 28.8721 229.745 29.9281C229.745 30.9988 229.489 31.9594 228.975 32.8101C228.477 33.6461 227.765 34.3061 226.841 34.7901C225.917 35.2594 224.832 35.4941 223.585 35.4941ZM223.783 33.7341C224.531 33.7341 225.191 33.5728 225.763 33.2501C226.335 32.9128 226.783 32.4654 227.105 31.9081C227.428 31.3361 227.589 30.6981 227.589 29.9941C227.589 29.2901 227.428 28.6668 227.105 28.1241C226.783 27.5814 226.335 27.1561 225.763 26.8481C225.191 26.5254 224.517 26.3641 223.739 26.3641C223.006 26.3641 222.346 26.5181 221.759 26.8261C221.173 27.1194 220.718 27.5374 220.395 28.0801C220.073 28.6081 219.911 29.2241 219.911 29.9281C219.911 30.6321 220.073 31.2774 220.395 31.8641C220.733 32.4361 221.187 32.8908 221.759 33.2281C222.346 33.5654 223.021 33.7341 223.783 33.7341ZM237.954 35.4501C236.707 35.4501 235.607 35.1934 234.654 34.6801C233.715 34.1668 232.982 33.4628 232.454 32.5681C231.94 31.6734 231.684 30.6468 231.684 29.4881C231.684 28.3294 231.933 27.3028 232.432 26.4081C232.945 25.5134 233.642 24.8168 234.522 24.3181C235.416 23.8048 236.421 23.5481 237.536 23.5481C238.665 23.5481 239.662 23.7974 240.528 24.2961C241.393 24.7948 242.068 25.4988 242.552 26.4081C243.05 27.3028 243.3 28.3514 243.3 29.5541C243.3 29.6421 243.292 29.7448 243.278 29.8621C243.278 29.9794 243.27 30.0894 243.256 30.1921H233.334V28.6741H242.156L241.298 29.2021C241.312 28.4541 241.158 27.7868 240.836 27.2001C240.513 26.6134 240.066 26.1588 239.494 25.8361C238.936 25.4988 238.284 25.3301 237.536 25.3301C236.802 25.3301 236.15 25.4988 235.578 25.8361C235.006 26.1588 234.558 26.6208 234.236 27.2221C233.913 27.8088 233.752 28.4834 233.752 29.2461V29.5981C233.752 30.3754 233.928 31.0721 234.28 31.6881C234.646 32.2894 235.152 32.7588 235.798 33.0961C236.443 33.4334 237.184 33.6021 238.02 33.6021C238.709 33.6021 239.332 33.4848 239.89 33.2501C240.462 33.0154 240.96 32.6634 241.386 32.1941L242.552 33.5581C242.024 34.1741 241.364 34.6434 240.572 34.9661C239.794 35.2888 238.922 35.4501 237.954 35.4501ZM251.658 35.4501C250.47 35.4501 249.407 35.1934 248.468 34.6801C247.544 34.1668 246.818 33.4628 246.29 32.5681C245.762 31.6734 245.498 30.6468 245.498 29.4881C245.498 28.3294 245.762 27.3028 246.29 26.4081C246.818 25.5134 247.544 24.8168 248.468 24.3181C249.407 23.8048 250.47 23.5481 251.658 23.5481C252.714 23.5481 253.653 23.7608 254.474 24.1861C255.31 24.5968 255.955 25.2128 256.41 26.0341L254.804 27.0681C254.423 26.4961 253.953 26.0781 253.396 25.8141C252.853 25.5354 252.267 25.3961 251.636 25.3961C250.873 25.3961 250.191 25.5648 249.59 25.9021C248.989 26.2394 248.512 26.7161 248.16 27.3321C247.808 27.9334 247.632 28.6521 247.632 29.4881C247.632 30.3241 247.808 31.0501 248.16 31.6661C248.512 32.2821 248.989 32.7588 249.59 33.0961C250.191 33.4334 250.873 33.6021 251.636 33.6021C252.267 33.6021 252.853 33.4701 253.396 33.2061C253.953 32.9274 254.423 32.5021 254.804 31.9301L256.41 32.9421C255.955 33.7488 255.31 34.3721 254.474 34.8121C253.653 35.2374 252.714 35.4501 251.658 35.4501ZM259.145 35.3181V23.6581H269.947V35.3181H267.835V24.9781L268.341 25.5061H260.751L261.257 24.9781V35.3181H259.145ZM272.097 35.2961L272.229 33.5141C272.332 33.5288 272.427 33.5434 272.515 33.5581C272.603 33.5728 272.684 33.5801 272.757 33.5801C273.227 33.5801 273.593 33.4188 273.857 33.0961C274.136 32.7734 274.341 32.3481 274.473 31.8201C274.605 31.2774 274.701 30.6688 274.759 29.9941C274.818 29.3194 274.862 28.6448 274.891 27.9701L275.089 23.6581H284.043V35.3181H281.931V24.8901L282.437 25.5061H276.453L276.937 24.8681L276.783 28.1021C276.739 29.1288 276.659 30.0894 276.541 30.9841C276.424 31.8788 276.241 32.6634 275.991 33.3381C275.757 34.0128 275.427 34.5408 275.001 34.9221C274.591 35.3034 274.055 35.4941 273.395 35.4941C273.205 35.4941 272.999 35.4721 272.779 35.4281C272.574 35.3988 272.347 35.3548 272.097 35.2961ZM295.277 35.3181V32.8541L295.167 32.3921V28.1901C295.167 27.2954 294.903 26.6061 294.375 26.1221C293.862 25.6234 293.084 25.3741 292.043 25.3741C291.354 25.3741 290.679 25.4914 290.019 25.7261C289.359 25.9461 288.802 26.2468 288.347 26.6281L287.467 25.0441C288.068 24.5601 288.787 24.1934 289.623 23.9441C290.474 23.6801 291.361 23.5481 292.285 23.5481C293.884 23.5481 295.116 23.9368 295.981 24.7141C296.846 25.4914 297.279 26.6794 297.279 28.2781V35.3181H295.277ZM291.449 35.4501C290.584 35.4501 289.821 35.3034 289.161 35.0101C288.516 34.7168 288.017 34.3134 287.665 33.8001C287.313 33.2721 287.137 32.6781 287.137 32.0181C287.137 31.3874 287.284 30.8154 287.577 30.3021C287.885 29.7888 288.376 29.3781 289.051 29.0701C289.74 28.7621 290.664 28.6081 291.823 28.6081H295.519V30.1261H291.911C290.855 30.1261 290.144 30.3021 289.777 30.6541C289.41 31.0061 289.227 31.4314 289.227 31.9301C289.227 32.5021 289.454 32.9641 289.909 33.3161C290.364 33.6534 290.994 33.8221 291.801 33.8221C292.593 33.8221 293.282 33.6461 293.869 33.2941C294.47 32.9421 294.903 32.4288 295.167 31.7541L295.585 33.2061C295.306 33.8954 294.815 34.4454 294.111 34.8561C293.407 35.2521 292.52 35.4501 291.449 35.4501ZM303.392 35.3181V24.9561L303.92 25.5061H299.124V23.6581H309.772V25.5061H304.998L305.504 24.9561V35.3181H303.392ZM311.932 35.3181V23.6581H314.044V28.6081H320.688V23.6581H322.8V35.3181H320.688V30.4341H314.044V35.3181H311.932ZM331.9 35.4501C330.727 35.4501 329.686 35.1934 328.776 34.6801C327.867 34.1668 327.148 33.4628 326.62 32.5681C326.092 31.6588 325.828 30.6321 325.828 29.4881C325.828 28.3294 326.092 27.3028 326.62 26.4081C327.148 25.5134 327.867 24.8168 328.776 24.3181C329.686 23.8048 330.727 23.5481 331.9 23.5481C333.059 23.5481 334.093 23.8048 335.002 24.3181C335.926 24.8168 336.645 25.5134 337.158 26.4081C337.686 27.2881 337.95 28.3148 337.95 29.4881C337.95 30.6468 337.686 31.6734 337.158 32.5681C336.645 33.4628 335.926 34.1668 335.002 34.6801C334.093 35.1934 333.059 35.4501 331.9 35.4501ZM331.9 33.6021C332.648 33.6021 333.316 33.4334 333.902 33.0961C334.504 32.7588 334.973 32.2821 335.31 31.6661C335.648 31.0354 335.816 30.3094 335.816 29.4881C335.816 28.6521 335.648 27.9334 335.31 27.3321C334.973 26.7161 334.504 26.2394 333.902 25.9021C333.316 25.5648 332.648 25.3961 331.9 25.3961C331.152 25.3961 330.485 25.5648 329.898 25.9021C329.312 26.2394 328.842 26.7161 328.49 27.3321C328.138 27.9334 327.962 28.6521 327.962 29.4881C327.962 30.3094 328.138 31.0354 328.49 31.6661C328.842 32.2821 329.312 32.7588 329.898 33.0961C330.485 33.4334 331.152 33.6021 331.9 33.6021ZM341.66 39.5861H339.658C340.553 38.0314 341.205 36.4108 341.616 34.7241C342.027 33.0228 342.232 31.2114 342.232 29.2901C342.232 27.3688 342.027 25.5648 341.616 23.8781C341.205 22.1768 340.553 20.5488 339.658 18.9941H341.66C342.525 20.2994 343.178 21.8394 343.618 23.6141C344.073 25.3741 344.3 27.2661 344.3 29.2901C344.3 31.3141 344.073 33.2061 343.618 34.9661C343.178 36.7114 342.525 38.2514 341.66 39.5861Z" fill="white"/>
<defs>
<linearGradient id="paint0_linear_649_131" x1="40.0728" y1="3.32898" x2="261.756" y2="204.101" gradientUnits="userSpaceOnUse">
<stop stop-color="#D60813"/>
<stop offset="0.89434" stop-color="#771210"/>
</linearGradient>
</defs>
</svg>
