<svg width="156" height="70" viewBox="0 0 156 70" fill="none" xmlns="http://www.w3.org/2000/svg">
<g clip-path="url(#clip0_497_427)">
<path d="M85.0691 24.7862C84.965 24.5278 84.8102 24.2931 84.6137 24.096C84.4173 23.899 84.1833 23.7436 83.9257 23.6392C83.6681 23.5332 83.3924 23.4786 83.1139 23.4786H73.7495C72.1841 23.4628 70.6306 23.753 69.1759 24.3331C67.8195 24.8702 66.5849 25.6757 65.5456 26.7016C64.5097 27.7558 63.702 29.0131 63.173 30.3949C62.5925 31.8537 62.3012 33.4121 62.3154 34.9828V46.4526H66.4717V40.8553H81.0787V46.4984H85.2349V25.6063C85.2359 25.3244 85.1795 25.0454 85.0691 24.7862ZM81.0672 36.6861H66.466V34.9828C66.4391 33.9688 66.604 32.9588 66.9519 32.0064C67.2374 31.2554 67.6579 30.5634 68.1925 29.9648C68.6603 29.4396 69.2179 29.0026 69.839 28.6744C70.3851 28.3854 70.96 28.1547 71.5541 27.9862C72.0198 27.852 72.496 27.758 72.9777 27.7052C73.3893 27.6708 73.658 27.6479 73.7838 27.6479H81.0901L81.0672 36.6861Z" fill="black"/>
<path d="M101.906 38.9972C102.455 38.9932 103.003 38.9356 103.541 38.8252C104.132 38.7001 104.708 38.5077 105.256 38.2517C105.845 37.9785 106.4 37.6358 106.908 37.2309C107.44 36.8136 107.906 36.3187 108.292 35.7627C108.707 35.1558 109.027 34.4885 109.241 33.7842C109.485 32.9562 109.603 32.0957 109.589 31.2322V28.5712C109.583 28.0107 109.495 27.4541 109.326 26.9196C109.14 26.2953 108.83 25.7153 108.415 25.2145C107.999 24.7138 107.486 24.3028 106.908 24.0062C106.177 23.6512 105.371 23.4781 104.558 23.5016H88.7795C88.4954 23.5011 88.2139 23.5556 87.9505 23.6621C87.7009 23.7661 87.4752 23.9203 87.2873 24.1152C86.9 24.514 86.6844 25.0495 86.687 25.6063V46.4984H90.8433V27.6708H104.564H104.844C104.946 27.6836 105.044 27.7188 105.13 27.774C105.23 27.8415 105.308 27.9374 105.353 28.0493C105.418 28.2192 105.448 28.4008 105.439 28.5827V31.215C105.454 31.7177 105.371 32.2185 105.193 32.6888C105.032 33.0987 104.785 33.4686 104.467 33.7727C104.133 34.0791 103.745 34.3202 103.324 34.4839C102.867 34.667 102.385 34.7773 101.894 34.8108H92.5069V38.9972H95.4741L104.135 46.5214H110.561L101.906 38.9972Z" fill="black"/>
<path d="M131.726 27.6708V23.513H113.008C112.722 23.5125 112.439 23.567 112.173 23.6736C111.923 23.7811 111.697 23.9381 111.508 24.1352C111.32 24.3322 111.173 24.5653 111.076 24.8206C110.967 25.0802 110.913 25.3592 110.916 25.6407V40.6431C110.883 41.5879 111.079 42.5266 111.487 43.3787C111.842 44.0766 112.336 44.6935 112.939 45.1909C113.5 45.6437 114.142 45.9827 114.832 46.1888C115.442 46.3832 116.078 46.4875 116.718 46.4985H131.714V42.3292H116.764C116.534 42.3616 116.3 42.3406 116.08 42.2679C115.859 42.1951 115.659 42.0726 115.493 41.9097C115.327 41.7467 115.201 41.5478 115.124 41.3282C115.047 41.1086 115.021 40.8742 115.049 40.6431V27.6708H131.726ZM116.73 32.901V37.099H129.879V32.901H116.73Z" fill="black"/>
<path d="M155.84 24.7862C155.625 24.2674 155.214 23.8551 154.696 23.6392C154.442 23.5479 154.172 23.5051 153.902 23.513H144.537C142.972 23.496 141.418 23.7863 139.964 24.3675C138.601 24.9037 137.362 25.7155 136.326 26.7524C135.289 27.7894 134.476 29.0292 133.938 30.3949C133.354 31.8688 133.063 33.4428 133.08 35.0287V46.4984H137.237V40.8553H151.844V46.4984H156V25.6063C156 25.3251 155.945 25.0466 155.84 24.7862ZM151.844 36.7032H137.237V34.9828C137.21 33.9688 137.375 32.9588 137.723 32.0064C138.008 31.2568 138.427 30.5652 138.958 29.9648C139.428 29.4422 139.985 29.0056 140.604 28.6744C141.151 28.3866 141.725 28.156 142.319 27.9862C142.785 27.852 143.261 27.758 143.743 27.7052C144.154 27.6708 144.423 27.6479 144.549 27.6479H151.844V36.7032Z" fill="black"/>
<path d="M53.7456 0V50.4613L50.5441 52.7896L50.4297 52.8699L48.829 54.0341L48.7146 54.1201L42.3745 58.731L42.2601 58.8112L40.6594 59.9754L40.545 60.0615L37.3835 62.3611L37.2692 62.4414L35.6684 63.6056L35.5541 63.6916L28.5908 68.7555L28.4764 68.8358L26.8757 70L26.7613 69.9197L23.6513 67.6602L23.5369 67.5742L21.9362 66.41L21.8218 66.3239L17.3283 63.0551L17.2139 62.9748L15.6132 61.8106L15.4988 61.7303L12.3316 59.4249L12.2172 59.3446L10.6165 58.1804L10.5021 58.0944L5.09957 54.166L4.98523 54.0857L3.38447 52.9215L3.27013 52.8412L0 50.4613V0H53.7456Z" fill="url(#paint0_linear_497_427)"/>
<path d="M42.3745 38.2768V29.2443L26.87 17.981V71L28.4708 69.853L28.5851 69.7728V21.3531L40.6537 30.1275V37.0667L35.6628 33.4939V64.6056L37.2635 63.4586L37.3779 63.3784V36.8316L40.6537 39.1829V60.9754L42.2545 59.8285L42.3688 59.7482V40.4101L48.8233 44.998V55.0341L50.4241 53.8871L50.5384 53.8068V44.1436L42.3745 38.2768ZM17.3283 35.9828V9.91202L3.38452 20.4986V53.9215L4.98528 55.0877L5.09962 55.168V21.313L15.6132 13.3644V37.3592L10.6165 41.2589V59.1804L12.2173 60.3494L12.3316 60.4297V42.056L15.6132 39.4983V62.8047L16.5205 63.5L17.214 63.9783L17.3283 64.0586V38.2022L21.9362 34.6007V67.41L23.537 68.557L23.6513 68.643V31.0852L17.3283 35.9828Z" fill="white"/>
</g>
<defs>
<linearGradient id="paint0_linear_497_427" x1="27.1215" y1="-35.2867" x2="26.6325" y2="83.2877" gradientUnits="userSpaceOnUse">
<stop stop-color="#E30613"/>
<stop offset="0.23" stop-color="#E00613"/>
<stop offset="0.39" stop-color="#D70712"/>
<stop offset="0.52" stop-color="#C80812"/>
<stop offset="0.64" stop-color="#B30A10"/>
<stop offset="0.75" stop-color="#980D0F"/>
<stop offset="0.85" stop-color="#76100D"/>
<stop offset="0.86" stop-color="#72100D"/>
</linearGradient>
<clipPath id="clip0_497_427">
<rect width="156" height="70" fill="white"/>
</clipPath>
</defs>
</svg>
